<svg width="120" height="120" viewBox="0 0 120 120" fill="none" xmlns="http://www.w3.org/2000/svg">
<rect width="120" height="120" rx="28" fill="#FAFAFA"/>
<path d="M68.8674 35.8998C60.6077 41.7642 57.0217 50.0934 55.5672 54.8392C53.8491 57.8825 52.7253 61.3004 52.2421 65.1679H46.9148V71.1047L38.8722 74.0111C35.2914 75.4424 33.2943 79.3434 34.2295 83.0868L36.2111 91H73.1225L75.1067 83.0843C76.0394 79.3434 74.0423 75.4424 70.3814 73.9775L62.4188 71.1021V65.1653H57.4403C57.572 64.2843 57.7296 63.4163 57.9441 62.5818H57.9131C62.0209 49.9306 73.3473 39.5399 82.4905 38.4703C74.342 44.234 68.746 51.9896 65.2091 58.1796C70.2186 57.4433 76.2822 55.7253 81.8007 51.8062C93.9538 43.1774 96 29.1802 96 29.1802C96 29.1802 81.0257 27.2684 68.8674 35.8998Z" fill="#344955"/>
</svg>
